<svg xmlns="http://www.w3.org/2000/svg" xmlns:xlink="http://www.w3.org/1999/xlink" id="Layer_1" data-name="Layer 1" width="278.05" height="143.69" viewBox="0 0 278.05 143.69"><defs><style>.cls-1{fill:#414042;}.cls-2{fill:#ea5b2b;}.cls-3{fill:url(#gra-laranja);}.cls-4{fill:url(#gra-laranja-2);}</style><linearGradient id="gra-laranja" x1="5128.4" y1="4390.77" x2="5115.9" y2="4379.48" gradientTransform="matrix(-2.17, -0.65, -2.31, 0.96, 21355.39, -900.19)" gradientUnits="userSpaceOnUse"><stop offset="0" stop-color="#e74238"></stop><stop offset="1" stop-color="#f39322"></stop></linearGradient><linearGradient id="gra-laranja-2" x1="5113.56" y1="4406.01" x2="5100.99" y2="4394.66" xlink:href="#gra-laranja"></linearGradient></defs><path class="cls-1" d="M26.15,115.77A19.63,19.63,0,0,1,6,95.67,19.63,19.63,0,0,1,26.15,75.56,19.8,19.8,0,0,1,35.76,78a18.17,18.17,0,0,1,7,6.55L35.1,88.93a8.74,8.74,0,0,0-3.64-3.51,11.3,11.3,0,0,0-5.31-1.24A10.91,10.91,0,0,0,18,87.32a11.43,11.43,0,0,0-3.07,8.35A11.42,11.42,0,0,0,18,104a10.92,10.92,0,0,0,8.2,3.15,11.3,11.3,0,0,0,5.33-1.27,8.63,8.63,0,0,0,3.62-3.48l7.63,4.42a17.77,17.77,0,0,1-6.91,6.54A20,20,0,0,1,26.15,115.77Z"></path><path class="cls-1" d="M53.88,114.23a5.19,5.19,0,1,1,1.55-3.7A5,5,0,0,1,53.88,114.23Z"></path><path class="cls-2" d="M81.67,76.33v8.51H71.73V115H62.89V84.84H53V76.33Z"></path><path class="cls-2" d="M116,110a20.41,20.41,0,0,1-28.5,0,20.39,20.39,0,0,1,0-28.61,20.41,20.41,0,0,1,28.5,0A20.39,20.39,0,0,1,116,110Zm-22.29-6a11.67,11.67,0,0,0,16.08,0,12.24,12.24,0,0,0,0-16.57,11.7,11.7,0,0,0-16.08,0,12.24,12.24,0,0,0,0,16.57Z"></path><path class="cls-2" d="M133.11,115,122.44,76.33h9.28l6.69,27.07,7.46-27.07h7.18l7.46,27.07,6.68-27.07h9.28L165.81,115H155.76l-6.3-22.81L143.16,115Z"></path><path class="cls-2" d="M189.18,106.49h15.47V115H180.34V76.33h24v8.51H189.18v6.41H203v8.39H189.18Z"></path><path class="cls-2" d="M230,115l-7.29-12.7h-4.2V115h-8.84V76.33h15.47a13.2,13.2,0,0,1,13.25,13.26,11.75,11.75,0,0,1-2,6.55,13.39,13.39,0,0,1-5.16,4.66l8.23,14.2ZM218.46,84.62v9.94h6.63a4.07,4.07,0,0,0,3.12-1.44,5.46,5.46,0,0,0,0-7.07,4.09,4.09,0,0,0-3.12-1.43Z"></path><path class="cls-2" d="M256.58,115.77a17.78,17.78,0,0,1-9.87-2.56,14,14,0,0,1-5.6-7l7.62-4.42a8.21,8.21,0,0,0,8.12,5.36q5.25,0,5.25-3.15a3,3,0,0,0-1.69-2.68,30.53,30.53,0,0,0-6.32-2.24,28.18,28.18,0,0,1-4.25-1.49,17.73,17.73,0,0,1-3.57-2.18,8.78,8.78,0,0,1-2.65-3.4,11.39,11.39,0,0,1-.91-4.7,10.59,10.59,0,0,1,3.84-8.56,13.84,13.84,0,0,1,9.14-3.2,15.74,15.74,0,0,1,8.4,2.23,15.41,15.41,0,0,1,5.74,6.5l-7.45,4.36a8.6,8.6,0,0,0-2.6-3.34,6.74,6.74,0,0,0-4.09-1.13,4.81,4.81,0,0,0-3.06.85,2.56,2.56,0,0,0-1.08,2.07,3.09,3.09,0,0,0,1.35,2.49,19.44,19.44,0,0,0,5.61,2.32c1.55.48,2.74.87,3.59,1.16a24.9,24.9,0,0,1,3.23,1.46,10.57,10.57,0,0,1,3,2.16,10.77,10.77,0,0,1,1.83,3A11.52,11.52,0,0,1,267,112.6Q263,115.78,256.58,115.77Z"></path><path class="cls-3" d="M153.69,17.54c.48.4.94.81,1.41,1.21a6.6,6.6,0,0,1,7.25,1.62c2.7,2.6,3.16,6.57,1,8.87s-6,2.06-8.72-.54a7.07,7.07,0,0,1-2.1-7l-1.39-1.19C137.09,8.62,122.31,3,118.17,7.85c-2.19,2.59-1,7.63,2.8,13.57l-3.72,4.39c-4.23-7.58-5.17-14.52-1.76-18.55C121.47.2,138.57,4.8,153.69,17.54Z"></path><path class="cls-4" d="M120.79,28c2.7-2.93,7.67-2.62,11.1.69A9.19,9.19,0,0,1,134.75,37l1.45,1.25c14.09,11.87,28.87,17.54,33,12.65,2.58-3.05.41-9.49-5-16.79l2.2-2.6c5.94,8.86,7.75,17.32,3.84,21.93-6,7.07-23.08,2.47-38.2-10.27l-1.6-1.39a8.68,8.68,0,0,1-8.32-2.4C118.68,36,118.09,31,120.79,28Z"></path><path class="cls-1" d="M133.84,26.92c-3-2.25-3.84-6.06-1.89-8.51s6-2.61,8.94-.36A6.56,6.56,0,0,1,143.62,25l1.43,1.19c9.12,7.88,15.36,17,17.47,24.43a24.38,24.38,0,0,1-2.93-.72c-2.8-6.07-8.9-13.71-17.09-20.77-.46-.4-.93-.8-1.39-1.18A7.11,7.11,0,0,1,133.84,26.92Z"></path><path class="cls-1" d="M159,61a4.61,4.61,0,0,0,1-2.33c.69,0,1.36,0,2,0a8.9,8.9,0,0,1-2.06,4.9c-3.45,4-10.47,4.14-18.63,1.15l3.77-4.35C151.61,63.12,156.8,63.56,159,61Z"></path><path class="cls-1" d="M119.94,15.35a16.21,16.21,0,0,1-.91-2.84,40.11,40.11,0,0,1,10.25,3.29l-2.23,2.58A43.17,43.17,0,0,0,119.94,15.35Z"></path><path class="cls-1" d="M105.83,16.77a9.46,9.46,0,0,1,5.75-3,15.31,15.31,0,0,0,0,2,5.13,5.13,0,0,0-3.13,1.59c-4.19,4.84,3.72,18.52,17.67,30.56.48.43,1,.84,1.46,1.24a9.22,9.22,0,0,1,8.59,1.54c3.81,2.87,4.89,7.72,2.41,10.83s-7.58,3.32-11.39.46a8.65,8.65,0,0,1-3.68-7.83l-1.62-1.36C107,39.9,99.76,23.76,105.83,16.77Z"></path><path class="cls-1" d="M6.61,129.14a4,4,0,0,1,1.59-1.61,4.65,4.65,0,0,1,2.31-.57,4.38,4.38,0,0,1,2.7.83,4.08,4.08,0,0,1,1.51,2.28H12.34a2,2,0,0,0-.75-.85,2.19,2.19,0,0,0-1.11-.29,2.08,2.08,0,0,0-1.62.69,2.73,2.73,0,0,0-.62,1.86,2.7,2.7,0,0,0,.62,1.86,2.06,2.06,0,0,0,1.62.7,2.19,2.19,0,0,0,1.11-.29,2,2,0,0,0,.75-.85h2.38a4,4,0,0,1-1.51,2.27,4.44,4.44,0,0,1-2.7.83,4.56,4.56,0,0,1-2.31-.58,4.08,4.08,0,0,1-1.59-1.6,5.09,5.09,0,0,1,0-4.68Z"></path><path class="cls-1" d="M18.58,135.44a4.38,4.38,0,0,1-1.66-1.62,4.55,4.55,0,0,1-.61-2.35,4.49,4.49,0,0,1,.61-2.34,4.38,4.38,0,0,1,1.66-1.62,4.83,4.83,0,0,1,4.59,0,4.25,4.25,0,0,1,1.64,1.62,4.58,4.58,0,0,1,.6,2.34,4.64,4.64,0,0,1-.6,2.35,4.42,4.42,0,0,1-1.65,1.62,4.56,4.56,0,0,1-2.29.58A4.61,4.61,0,0,1,18.58,135.44Zm4-2.1a3.11,3.11,0,0,0,0-3.75,2.44,2.44,0,0,0-3.42,0,2.69,2.69,0,0,0-.64,1.88,2.73,2.73,0,0,0,.64,1.88,2.43,2.43,0,0,0,3.42,0Z"></path><path class="cls-1" d="M35.19,135.93H33l-3.62-5.47v5.47H27.25v-8.87h2.16l3.62,5.5v-5.5h2.16Z"></path><path class="cls-1" d="M38.85,135.71a2.9,2.9,0,0,1-1.23-.94,2.48,2.48,0,0,1-.48-1.49h2.3a1.06,1.06,0,0,0,.34.75,1.09,1.09,0,0,0,.76.26,1.18,1.18,0,0,0,.76-.22.75.75,0,0,0,.27-.61.74.74,0,0,0-.22-.55,1.74,1.74,0,0,0-.54-.35,7.72,7.72,0,0,0-.92-.32,10,10,0,0,1-1.4-.53,2.69,2.69,0,0,1-.94-.78,2.22,2.22,0,0,1-.39-1.36,2.33,2.33,0,0,1,.9-1.94,4.29,4.29,0,0,1,4.7,0,2.51,2.51,0,0,1,1,2H41.38a.89.89,0,0,0-.31-.68,1.1,1.1,0,0,0-.75-.25.92.92,0,0,0-.63.21.75.75,0,0,0-.24.6.74.74,0,0,0,.4.67,6.45,6.45,0,0,0,1.27.52,10.94,10.94,0,0,1,1.4.56,2.7,2.7,0,0,1,.93.77,2.07,2.07,0,0,1,.39,1.3,2.52,2.52,0,0,1-.39,1.38,2.78,2.78,0,0,1-1.12,1,3.87,3.87,0,0,1-1.73.36A4.62,4.62,0,0,1,38.85,135.71Z"></path><path class="cls-1" d="M52.18,127.06v1.73H49.83v7.14H47.67v-7.14H45.32v-1.73Z"></path><path class="cls-1" d="M58.43,135.93l-1.85-3.35h-.52v3.35H53.9v-8.87h3.63a4.05,4.05,0,0,1,1.79.36,2.6,2.6,0,0,1,1.11,1,2.86,2.86,0,0,1,.36,1.42,2.59,2.59,0,0,1-.5,1.58,2.62,2.62,0,0,1-1.47,1l2,3.51Zm-2.37-4.88h1.35a1.21,1.21,0,0,0,.89-.29,1.12,1.12,0,0,0,.29-.82,1.11,1.11,0,0,0-.29-.8,1.25,1.25,0,0,0-.89-.29H56.06Z"></path><path class="cls-1" d="M64.9,127.06v5.31a1.69,1.69,0,0,0,.4,1.22,1.46,1.46,0,0,0,1.15.44,1.51,1.51,0,0,0,1.16-.44,1.69,1.69,0,0,0,.4-1.22v-5.31h2.17v5.29a3.76,3.76,0,0,1-.51,2,3.32,3.32,0,0,1-1.36,1.24,4.37,4.37,0,0,1-1.9.41,4.09,4.09,0,0,1-1.88-.41,3.07,3.07,0,0,1-1.31-1.24,4,4,0,0,1-.48-2v-5.29Z"></path><path class="cls-1" d="M74.49,127.06v8.87H72.33v-8.87Z"></path><path class="cls-1" d="M84.63,135.93H82.47l-3.62-5.47v5.47H76.69v-8.87h2.16l3.62,5.5v-5.5h2.16Z"></path><path class="cls-1" d="M92.61,127.61a4,4,0,0,1,1.62,1.57,4.91,4.91,0,0,1,0,4.63,3.92,3.92,0,0,1-1.63,1.57,5.16,5.16,0,0,1-2.44.55H86.83v-8.87h3.33A5.18,5.18,0,0,1,92.61,127.61Zm-.68,5.78a2.54,2.54,0,0,0,.68-1.89A2.38,2.38,0,0,0,90,128.9H89v5.16h1A2.62,2.62,0,0,0,91.93,133.39Z"></path><path class="cls-1" d="M98.56,135.44a4.38,4.38,0,0,1-1.66-1.62,4.55,4.55,0,0,1-.61-2.35,4.49,4.49,0,0,1,.61-2.34,4.38,4.38,0,0,1,1.66-1.62,4.83,4.83,0,0,1,4.59,0,4.32,4.32,0,0,1,1.64,1.62,4.58,4.58,0,0,1,.6,2.34,4.64,4.64,0,0,1-.6,2.35,4.42,4.42,0,0,1-1.65,1.62,4.81,4.81,0,0,1-4.58,0Zm4-2.1a3.07,3.07,0,0,0,0-3.75,2.17,2.17,0,0,0-1.7-.7,2.2,2.2,0,0,0-1.71.7,2.65,2.65,0,0,0-.64,1.88,2.68,2.68,0,0,0,.64,1.88,2.2,2.2,0,0,0,1.71.7A2.17,2.17,0,0,0,102.55,133.34Z"></path><path class="cls-1" d="M118.48,135.93h-2.16l-3.62-5.47v5.47h-2.16v-8.87h2.16l3.62,5.5v-5.5h2.16Z"></path><path class="cls-1" d="M122.58,135.44a4.42,4.42,0,0,1-1.65-1.62,4.56,4.56,0,0,1-.62-2.35,4.5,4.5,0,0,1,.62-2.34,4.42,4.42,0,0,1,1.65-1.62,4.83,4.83,0,0,1,4.59,0,4.28,4.28,0,0,1,1.65,1.62,4.85,4.85,0,0,1,0,4.69,4.32,4.32,0,0,1-1.64,1.62,4.83,4.83,0,0,1-4.59,0Zm4-2.1a3.07,3.07,0,0,0,0-3.75,2.18,2.18,0,0,0-1.7-.7,2.21,2.21,0,0,0-1.72.7,2.69,2.69,0,0,0-.63,1.88,2.72,2.72,0,0,0,.63,1.88,2.43,2.43,0,0,0,3.42,0Z"></path><path class="cls-1" d="M139.58,127.06l-3.14,8.87h-2.71l-3.15-8.87h2.3l2.2,6.7,2.22-6.7Z"></path><path class="cls-1" d="M146.64,134.37h-3.31l-.53,1.56h-2.27l3.21-8.87h2.51l3.21,8.87h-2.29Zm-.56-1.67-1.1-3.25-1.08,3.25Z"></path><path class="cls-1" d="M152.53,135.71a2.9,2.9,0,0,1-1.23-.94,2.55,2.55,0,0,1-.49-1.49h2.31a1.06,1.06,0,0,0,.34.75,1.09,1.09,0,0,0,.76.26,1.14,1.14,0,0,0,.75-.22.73.73,0,0,0,.28-.61.74.74,0,0,0-.22-.55,1.86,1.86,0,0,0-.54-.35,7.72,7.72,0,0,0-.92-.32,10,10,0,0,1-1.4-.53,2.61,2.61,0,0,1-.94-.78,2.22,2.22,0,0,1-.39-1.36,2.33,2.33,0,0,1,.9-1.94,3.66,3.66,0,0,1,2.34-.7,3.72,3.72,0,0,1,2.36.7,2.51,2.51,0,0,1,1,2h-2.34a.93.93,0,0,0-.31-.68,1.11,1.11,0,0,0-.75-.25.92.92,0,0,0-.63.21.75.75,0,0,0-.24.6.74.74,0,0,0,.4.67,6.2,6.2,0,0,0,1.27.52,10.72,10.72,0,0,1,1.39.56,2.53,2.53,0,0,1,.93.77,2.08,2.08,0,0,1,.4,1.3,2.52,2.52,0,0,1-.39,1.38,2.78,2.78,0,0,1-1.12,1,3.9,3.9,0,0,1-1.73.36A4.62,4.62,0,0,1,152.53,135.71Z"></path><path class="cls-1" d="M169.2,131.32a2.59,2.59,0,0,1-1.09,1,3.74,3.74,0,0,1-1.82.4H165v3.18h-2.16v-8.87h3.5a4.07,4.07,0,0,1,1.8.36,2.65,2.65,0,0,1,1.1,1,3,3,0,0,1,.36,1.48A2.88,2.88,0,0,1,169.2,131.32Zm-2.15-.58a1.28,1.28,0,0,0,0-1.65,1.3,1.3,0,0,0-.92-.29H165V131h1.18A1.3,1.3,0,0,0,167.05,130.74Z"></path><path class="cls-1" d="M173.21,135.44a4.42,4.42,0,0,1-1.65-1.62,4.56,4.56,0,0,1-.62-2.35,4.5,4.5,0,0,1,.62-2.34,4.42,4.42,0,0,1,1.65-1.62,4.83,4.83,0,0,1,4.59,0,4.28,4.28,0,0,1,1.65,1.62,4.58,4.58,0,0,1,.6,2.34,4.65,4.65,0,0,1-.61,2.35,4.32,4.32,0,0,1-1.64,1.62,4.83,4.83,0,0,1-4.59,0Zm4-2.1a3.07,3.07,0,0,0,0-3.75,2.18,2.18,0,0,0-1.7-.7,2.21,2.21,0,0,0-1.72.7,2.69,2.69,0,0,0-.63,1.88,2.72,2.72,0,0,0,.63,1.88,2.43,2.43,0,0,0,3.42,0Z"></path><path class="cls-1" d="M183.35,135.71a2.87,2.87,0,0,1-1.24-.94,2.55,2.55,0,0,1-.48-1.49h2.3a1,1,0,0,0,1.1,1,1.18,1.18,0,0,0,.76-.22.76.76,0,0,0,.28-.61.75.75,0,0,0-.23-.55,1.63,1.63,0,0,0-.54-.35,7.13,7.13,0,0,0-.92-.32,10,10,0,0,1-1.4-.53,2.66,2.66,0,0,1-.93-.78,2.16,2.16,0,0,1-.4-1.36,2.33,2.33,0,0,1,.9-1.94,4.29,4.29,0,0,1,4.7,0,2.55,2.55,0,0,1,1,2h-2.34a.94.94,0,0,0-.32-.68,1.08,1.08,0,0,0-.75-.25.92.92,0,0,0-.63.21.75.75,0,0,0-.24.6.75.75,0,0,0,.41.67,6.31,6.31,0,0,0,1.26.52,10.94,10.94,0,0,1,1.4.56,2.53,2.53,0,0,1,.93.77,2.07,2.07,0,0,1,.39,1.3,2.52,2.52,0,0,1-.39,1.38,2.72,2.72,0,0,1-1.12,1,3.84,3.84,0,0,1-1.73.36A4.54,4.54,0,0,1,183.35,135.71Z"></path><path class="cls-1" d="M191.76,135.71a2.87,2.87,0,0,1-1.24-.94,2.55,2.55,0,0,1-.48-1.49h2.3a1,1,0,0,0,1.1,1,1.18,1.18,0,0,0,.76-.22.75.75,0,0,0,.27-.61.74.74,0,0,0-.22-.55,1.74,1.74,0,0,0-.54-.35,7.72,7.72,0,0,0-.92-.32,10,10,0,0,1-1.4-.53,2.69,2.69,0,0,1-.94-.78,2.22,2.22,0,0,1-.39-1.36,2.33,2.33,0,0,1,.9-1.94,4.29,4.29,0,0,1,4.7,0,2.51,2.51,0,0,1,1,2h-2.33a.94.94,0,0,0-.32-.68,1.1,1.1,0,0,0-.75-.25.92.92,0,0,0-.63.21.81.81,0,0,0,.16,1.27,6.45,6.45,0,0,0,1.27.52,10.94,10.94,0,0,1,1.4.56,2.61,2.61,0,0,1,.93.77,2.07,2.07,0,0,1,.39,1.3,2.52,2.52,0,0,1-.39,1.38,2.72,2.72,0,0,1-1.12,1,3.87,3.87,0,0,1-1.73.36A4.54,4.54,0,0,1,191.76,135.71Z"></path><path class="cls-1" d="M200.86,127.06v8.87H198.7v-8.87Z"></path><path class="cls-1" d="M209.67,132.15a2.11,2.11,0,0,1,.47,1.37,2.17,2.17,0,0,1-.78,1.76,3.22,3.22,0,0,1-2.16.65h-4.14v-8.87h4a3.22,3.22,0,0,1,2.11.62,2.24,2.24,0,0,1,.36,3,2.09,2.09,0,0,1-1.1.72A2.06,2.06,0,0,1,209.67,132.15Zm-4.45-1.5h1.42a1.21,1.21,0,0,0,.81-.24.82.82,0,0,0,.29-.68.86.86,0,0,0-.29-.7,1.21,1.21,0,0,0-.81-.24h-1.42Zm2.44,3.29a.85.85,0,0,0,.29-.71.92.92,0,0,0-.31-.74,1.29,1.29,0,0,0-.85-.26h-1.57v2h1.6A1.26,1.26,0,0,0,207.66,133.94Z"></path><path class="cls-1" d="M214.19,127.06v8.87H212v-8.87Z"></path><path class="cls-1" d="M218.55,134.26h2.83v1.67h-5v-8.87h2.16Z"></path><path class="cls-1" d="M225.21,127.06v8.87h-2.16v-8.87Z"></path><path class="cls-1" d="M233.19,127.61a4,4,0,0,1,1.63,1.57,5,5,0,0,1,0,4.63,4,4,0,0,1-1.63,1.57,5.2,5.2,0,0,1-2.45.55h-3.32v-8.87h3.32A5.15,5.15,0,0,1,233.19,127.61Zm-.68,5.78a2.5,2.5,0,0,0,.68-1.89,2.38,2.38,0,0,0-2.59-2.6h-1v5.16h1A2.59,2.59,0,0,0,232.51,133.39Z"></path><path class="cls-1" d="M242.77,134.37h-3.32l-.53,1.56h-2.26l3.21-8.87h2.5l3.22,8.87H243.3Zm-.56-1.67-1.1-3.25L240,132.7Z"></path><path class="cls-1" d="M253,127.61a4,4,0,0,1,1.62,1.57,4.91,4.91,0,0,1,0,4.63,3.92,3.92,0,0,1-1.63,1.57,5.16,5.16,0,0,1-2.44.55h-3.33v-8.87h3.33A5.18,5.18,0,0,1,253,127.61Zm-.68,5.78a2.54,2.54,0,0,0,.68-1.89,2.38,2.38,0,0,0-2.59-2.6h-1v5.16h1A2.6,2.6,0,0,0,252.29,133.39Z"></path><path class="cls-1" d="M259.18,128.79v1.79h2.89v1.67h-2.89v1.95h3.27v1.73H257v-8.87h5.43v1.73Z"></path><path class="cls-1" d="M266,135.71a2.87,2.87,0,0,1-1.24-.94,2.55,2.55,0,0,1-.48-1.49h2.3a1,1,0,0,0,1.1,1,1.18,1.18,0,0,0,.76-.22.75.75,0,0,0,.27-.61.74.74,0,0,0-.22-.55,1.63,1.63,0,0,0-.54-.35,7.13,7.13,0,0,0-.92-.32,10,10,0,0,1-1.4-.53,2.69,2.69,0,0,1-.94-.78,2.22,2.22,0,0,1-.39-1.36,2.33,2.33,0,0,1,.9-1.94,4.29,4.29,0,0,1,4.7,0,2.51,2.51,0,0,1,1,2h-2.33a.94.94,0,0,0-.32-.68,1.1,1.1,0,0,0-.75-.25.92.92,0,0,0-.63.21.75.75,0,0,0-.24.6.75.75,0,0,0,.41.67,6.06,6.06,0,0,0,1.26.52,10.94,10.94,0,0,1,1.4.56,2.53,2.53,0,0,1,.93.77,2.07,2.07,0,0,1,.39,1.3,2.52,2.52,0,0,1-.39,1.38,2.72,2.72,0,0,1-1.12,1,3.87,3.87,0,0,1-1.73.36A4.54,4.54,0,0,1,266,135.71Z"></path></svg>