<?xml version="1.0" encoding="UTF-8"?>
<svg xmlns="http://www.w3.org/2000/svg" xmlns:xlink="http://www.w3.org/1999/xlink" width="250" zoomAndPan="magnify" viewBox="0 0 187.5 112.499997" height="150" preserveAspectRatio="xMidYMid meet" version="1.0">
  <path fill="#15e599" d="M 22.136719 66.304688 C 22.054688 74.714844 25.761719 78.914062 33.265625 78.914062 C 40.351562 78.914062 47.320312 77.59375 54.164062 74.960938 L 54.164062 86.578125 C 47.976562 89.792969 40.5625 91.398438 31.90625 91.398438 C 23.667969 91.398438 17.414062 89.582031 13.175781 85.957031 C 8.9375 82.332031 6.800781 76.570312 6.800781 68.660156 L 6.800781 43.1875 C 6.800781 35.273438 8.988281 29.382812 13.355469 25.503906 C 17.726562 21.632812 23.863281 19.695312 31.785156 19.695312 C 39.777344 19.695312 46.003906 21.632812 50.457031 25.503906 C 54.90625 29.375 57.132812 35.273438 57.132812 43.1875 L 57.132812 61.238281 L 22.136719 61.238281 Z M 41.667969 50.476562 L 41.667969 43.679688 C 41.667969 39.144531 40.882812 35.953125 39.320312 34.097656 C 37.757812 32.238281 35.277344 31.316406 31.898438 31.316406 C 28.519531 31.316406 26.023438 32.222656 24.417969 34.039062 C 22.816406 35.855469 22.003906 39.0625 22.003906 43.6875 L 22.003906 50.484375 L 41.667969 50.484375 Z M 41.667969 50.476562 " fill-opacity="1" fill-rule="nonzero"></path>
  <path fill="#15e599" d="M 78.480469 66.304688 C 78.480469 74.714844 82.226562 78.914062 89.730469 78.914062 C 94.347656 78.914062 99.085938 77.964844 103.953125 76.066406 L 103.953125 87.683594 C 98.59375 90.15625 93.316406 91.390625 88.128906 91.390625 C 79.886719 91.390625 73.660156 89.574219 69.457031 85.949219 C 65.25 82.324219 63.148438 76.554688 63.148438 68.636719 L 63.148438 42.441406 C 63.148438 34.859375 65.289062 29.171875 69.578125 25.382812 C 73.867188 21.59375 80.042969 19.695312 88.128906 19.695312 C 93.242188 19.695312 98.511719 20.890625 103.953125 23.277344 L 103.953125 35.019531 C 98.839844 33.039062 94.101562 32.050781 89.730469 32.050781 C 85.863281 32.050781 83.015625 33.015625 81.199219 34.957031 C 79.382812 36.894531 78.480469 40.207031 78.480469 44.90625 Z M 78.480469 66.304688 " fill-opacity="1" fill-rule="nonzero"></path>
  <path fill="#15e599" d="M 154.160156 21.109375 C 154.183594 21.160156 154.21875 21.199219 154.242188 21.25 C 157.933594 27.371094 158.382812 33 157.5 37.664062 C 161.917969 41.976562 164.722656 48.382812 164.722656 55.550781 C 164.722656 68.527344 155.542969 79.042969 144.21875 79.042969 C 132.894531 79.042969 123.714844 68.519531 123.714844 55.550781 C 123.714844 49.257812 125.882812 43.546875 129.390625 39.324219 C 128.019531 36.085938 127.183594 32.140625 127.394531 27.402344 L 127.414062 27.222656 C 127.550781 26.070312 127.675781 24.882812 127.789062 23.6875 C 116.269531 29.644531 108.378906 41.664062 108.378906 55.535156 C 108.378906 75.328125 124.425781 91.375 144.21875 91.375 C 164.011719 91.375 180.058594 75.328125 180.058594 55.535156 C 180.058594 39.195312 169.117188 25.421875 154.160156 21.109375 Z M 154.160156 21.109375 " fill-opacity="1" fill-rule="nonzero"></path>
  <path fill="#15e599" d="M 129.761719 26.234375 C 128.984375 43.621094 143.367188 48.972656 143.367188 48.972656 C 147.910156 35.636719 142.589844 20.511719 142.589844 20.511719 C 142.589844 20.511719 148.808594 28.492188 148.808594 47.671875 C 148.808594 47.671875 161.058594 36.183594 152.050781 21.234375 C 143.050781 6.285156 129.734375 3.960938 129.734375 3.960938 C 132.035156 7.054688 129.761719 26.234375 129.761719 26.234375 " fill-opacity="1" fill-rule="nonzero"></path>
  <path fill="#15e599" d="M 7.160156 106.265625 C 7.652344 106.667969 8.242188 106.984375 8.929688 106.984375 C 9.835938 106.984375 10.328125 106.542969 10.328125 105.964844 C 10.328125 105.554688 10.027344 105.21875 9.617188 105.054688 C 9.453125 104.988281 8.109375 104.5 7.816406 104.375 C 7.597656 104.285156 6.882812 103.957031 6.882812 103.042969 C 6.882812 101.96875 7.75 101.339844 8.886719 101.339844 C 9.617188 101.339844 10.164062 101.527344 10.804688 101.808594 L 10.515625 102.550781 C 10.027344 102.207031 9.445312 102.011719 8.816406 102.011719 C 8.265625 102.011719 7.71875 102.3125 7.71875 102.871094 C 7.71875 103.476562 8.101562 103.632812 9.320312 104.066406 C 10.363281 104.441406 11.105469 104.734375 11.105469 105.867188 C 11.105469 107.078125 10.109375 107.625 8.898438 107.625 C 8.046875 107.625 7.488281 107.4375 6.800781 106.984375 Z M 7.160156 106.265625 " fill-opacity="1" fill-rule="nonzero"></path>
  <path fill="#15e599" d="M 18.773438 107.664062 C 16.867188 107.664062 16.179688 106.039062 16.179688 104.5 C 16.179688 103.019531 16.921875 101.347656 18.8125 101.347656 C 20.785156 101.347656 21.488281 103 21.488281 104.574219 C 21.488281 106.316406 20.84375 107.664062 18.773438 107.664062 M 18.832031 102.085938 C 17.324219 102.085938 17.085938 103.671875 17.085938 104.71875 C 17.085938 105.726562 17.609375 106.9375 18.894531 106.9375 C 20.230469 106.9375 20.582031 105.652344 20.582031 104.644531 C 20.582031 103.597656 20.277344 102.085938 18.832031 102.085938 " fill-opacity="1" fill-rule="nonzero"></path>
  <path fill="#15e599" d="M 27.503906 99.121094 L 28.355469 98.722656 L 28.355469 107.550781 L 27.503906 107.550781 Z M 27.503906 99.121094 " fill-opacity="1" fill-rule="nonzero"></path>
  <path fill="#15e599" d="M 34.65625 101.519531 L 35.5625 101.519531 L 35.5625 105.703125 C 35.5625 106.289062 35.578125 106.996094 36.5625 106.996094 C 37.453125 106.996094 38.566406 105.660156 38.566406 105.496094 L 38.566406 101.519531 L 39.441406 101.519531 L 39.441406 107.265625 L 38.609375 107.664062 L 38.609375 106.316406 C 38.609375 106.289062 38.609375 106.242188 38.550781 106.242188 C 38.527344 106.242188 38.46875 106.265625 38.410156 106.332031 C 37.886719 107.078125 37.296875 107.640625 36.292969 107.640625 C 34.992188 107.640625 34.664062 106.816406 34.664062 105.765625 L 34.664062 101.519531 Z M 34.65625 101.519531 " fill-opacity="1" fill-rule="nonzero"></path>
  <path fill="#15e599" d="M 48.785156 102.929688 C 48.671875 102.714844 48.335938 102.035156 47.445312 102.035156 C 46.019531 102.035156 45.726562 103.535156 45.726562 104.605469 C 45.726562 104.972656 45.742188 105.652344 46.128906 106.21875 C 46.550781 106.847656 47.199219 106.953125 47.460938 106.953125 C 48.394531 106.953125 48.664062 106.324219 48.804688 106.003906 L 49.753906 106.378906 C 49.382812 107.167969 48.679688 107.527344 47.84375 107.632812 L 47.273438 108.296875 C 47.542969 108.246094 47.65625 108.222656 47.78125 108.222656 C 48.207031 108.222656 48.851562 108.476562 48.851562 109.148438 C 48.851562 109.726562 48.277344 110.175781 47.410156 110.175781 C 46.757812 110.175781 46.488281 110.078125 46.070312 109.925781 L 46.273438 109.546875 C 46.675781 109.671875 46.847656 109.734375 47.148438 109.734375 C 47.714844 109.734375 48.066406 109.472656 48.066406 109.15625 C 48.066406 108.902344 47.804688 108.648438 47.363281 108.648438 C 47.15625 108.648438 46.953125 108.695312 46.757812 108.746094 C 46.699219 108.695312 46.601562 108.632812 46.550781 108.582031 L 47.304688 107.632812 C 46.109375 107.625 44.792969 106.765625 44.792969 104.410156 C 44.792969 102.65625 45.867188 101.324219 47.445312 101.324219 C 48.566406 101.324219 49.03125 101.667969 49.554688 102.535156 Z M 48.785156 102.929688 " fill-opacity="1" fill-rule="nonzero"></path>
  <path fill="#15e599" d="M 57.46875 107.664062 C 55.5625 107.664062 54.875 106.039062 54.875 104.5 C 54.875 103.019531 55.617188 101.347656 57.507812 101.347656 C 59.480469 101.347656 60.183594 103 60.183594 104.574219 C 60.183594 106.316406 59.539062 107.664062 57.46875 107.664062 M 59.605469 99.3125 C 59.421875 100.269531 58.972656 100.53125 58.464844 100.53125 C 58.164062 100.53125 58.058594 100.503906 57.246094 100.1875 C 56.730469 99.980469 56.65625 99.957031 56.476562 99.957031 C 56.003906 99.957031 55.863281 100.398438 55.808594 100.585938 L 55.316406 100.585938 C 55.382812 100.03125 55.757812 99.359375 56.527344 99.359375 C 56.828125 99.359375 56.910156 99.402344 57.664062 99.6875 C 58.1875 99.890625 58.292969 99.925781 58.457031 99.925781 C 58.980469 99.925781 59.046875 99.457031 59.070312 99.292969 L 59.605469 99.292969 Z M 57.515625 102.085938 C 56.011719 102.085938 55.773438 103.671875 55.773438 104.71875 C 55.773438 105.726562 56.296875 106.9375 57.589844 106.9375 C 58.917969 106.9375 59.277344 105.652344 59.277344 104.644531 C 59.277344 103.597656 58.972656 102.085938 57.515625 102.085938 " fill-opacity="1" fill-rule="nonzero"></path>
  <path fill="#15e599" d="M 66.09375 104.425781 C 66.09375 105.523438 66.355469 106.921875 67.851562 106.921875 C 68.464844 106.921875 68.914062 106.683594 69.308594 106.25 L 69.9375 106.707031 C 69.347656 107.371094 68.742188 107.625 67.828125 107.625 C 66.085938 107.625 65.175781 106.117188 65.175781 104.664062 C 65.175781 103.933594 65.257812 103.109375 65.765625 102.371094 C 66.296875 101.601562 67.042969 101.339844 67.785156 101.339844 C 69.816406 101.339844 70.0625 102.96875 70.125 104.425781 Z M 69.183594 103.820312 C 69.183594 103.589844 69.203125 103.050781 68.90625 102.609375 C 68.636719 102.191406 68.136719 102.027344 67.730469 102.027344 C 66.953125 102.027344 66.230469 102.519531 66.109375 103.8125 L 69.183594 103.8125 Z M 69.183594 103.820312 " fill-opacity="1" fill-rule="nonzero"></path>
  <path fill="#15e599" d="M 75.445312 106.265625 C 75.9375 106.667969 76.523438 106.984375 77.210938 106.984375 C 78.121094 106.984375 78.613281 106.542969 78.613281 105.964844 C 78.613281 105.554688 78.308594 105.21875 77.898438 105.054688 C 77.734375 104.988281 76.394531 104.5 76.101562 104.375 C 75.878906 104.285156 75.167969 103.957031 75.167969 103.042969 C 75.167969 101.96875 76.035156 101.339844 77.171875 101.339844 C 77.898438 101.339844 78.449219 101.527344 79.09375 101.808594 L 78.808594 102.550781 C 78.316406 102.207031 77.746094 102.011719 77.105469 102.011719 C 76.558594 102.011719 76.007812 102.3125 76.007812 102.871094 C 76.007812 103.476562 76.394531 103.632812 77.613281 104.066406 C 78.652344 104.441406 79.398438 104.734375 79.398438 105.867188 C 79.398438 107.078125 78.398438 107.625 77.195312 107.625 C 76.34375 107.625 75.78125 107.4375 75.09375 106.984375 Z M 75.445312 106.265625 " fill-opacity="1" fill-rule="nonzero"></path>
  <path fill="#15e599" d="M 88.824219 104.425781 C 88.824219 105.523438 89.085938 106.921875 90.582031 106.921875 C 91.195312 106.921875 91.644531 106.683594 92.039062 106.25 L 92.667969 106.707031 C 92.082031 107.371094 91.476562 107.625 90.558594 107.625 C 88.816406 107.625 87.90625 106.117188 87.90625 104.664062 C 87.90625 103.933594 87.988281 103.109375 88.496094 102.371094 C 89.027344 101.601562 89.773438 101.339844 90.515625 101.339844 C 92.546875 101.339844 92.792969 102.96875 92.859375 104.425781 Z M 91.925781 103.820312 C 91.925781 103.589844 91.941406 103.050781 91.644531 102.609375 C 91.375 102.191406 90.878906 102.027344 90.46875 102.027344 C 89.691406 102.027344 88.972656 102.519531 88.847656 103.8125 L 91.925781 103.8125 Z M 91.925781 103.820312 " fill-opacity="1" fill-rule="nonzero"></path>
  <path fill="#15e599" d="M 98.355469 101.832031 L 99.191406 101.398438 L 99.191406 102.707031 C 99.191406 102.78125 99.207031 102.847656 99.289062 102.847656 C 99.773438 102.453125 100.140625 101.429688 101.457031 101.429688 C 102.882812 101.429688 102.882812 102.363281 103.070312 102.828125 C 103.09375 102.878906 103.144531 102.855469 103.152344 102.847656 C 103.46875 102.550781 103.886719 101.421875 105.417969 101.421875 C 106.652344 101.421875 106.957031 102.167969 106.957031 103.171875 L 106.957031 107.542969 L 106.089844 107.542969 L 106.089844 103.269531 C 106.089844 102.699219 105.992188 102.070312 105.164062 102.070312 C 104.191406 102.070312 103.078125 103.410156 103.078125 103.550781 L 103.078125 107.542969 L 102.210938 107.542969 L 102.210938 103.363281 C 102.210938 102.757812 102.128906 102.09375 101.308594 102.09375 C 100.5 102.09375 99.992188 102.683594 99.214844 103.589844 L 99.214844 107.550781 L 98.347656 107.550781 L 98.347656 101.832031 Z M 98.355469 101.832031 " fill-opacity="1" fill-rule="nonzero"></path>
  <path fill="#15e599" d="M 116.890625 104.425781 C 116.890625 105.523438 117.152344 106.921875 118.648438 106.921875 C 119.261719 106.921875 119.71875 106.683594 120.105469 106.25 L 120.734375 106.707031 C 120.144531 107.371094 119.539062 107.625 118.625 107.625 C 116.882812 107.625 115.980469 106.117188 115.980469 104.664062 C 115.980469 103.933594 116.0625 103.109375 116.570312 102.371094 C 117.109375 101.601562 117.847656 101.339844 118.589844 101.339844 C 120.621094 101.339844 120.867188 102.96875 120.933594 104.425781 Z M 119.992188 103.820312 C 119.992188 103.589844 120.007812 103.050781 119.71875 102.609375 C 119.441406 102.191406 118.953125 102.027344 118.542969 102.027344 C 117.765625 102.027344 117.046875 102.519531 116.929688 103.8125 L 119.992188 103.8125 Z M 119.992188 103.820312 " fill-opacity="1" fill-rule="nonzero"></path>
  <path fill="#15e599" d="M 126.398438 101.808594 L 127.265625 101.375 L 127.265625 102.730469 C 127.265625 102.804688 127.332031 102.855469 127.371094 102.820312 C 127.617188 102.640625 128.238281 101.421875 129.644531 101.421875 C 130.929688 101.421875 131.226562 102.265625 131.226562 103.28125 L 131.226562 107.542969 L 130.332031 107.542969 L 130.332031 103.246094 C 130.332031 102.691406 130.332031 102.078125 129.464844 102.078125 C 128.875 102.078125 128.460938 102.339844 128.082031 102.664062 C 127.699219 102.992188 127.4375 103.34375 127.289062 103.65625 L 127.289062 107.542969 L 126.398438 107.542969 Z M 126.398438 101.808594 " fill-opacity="1" fill-rule="nonzero"></path>
  <path fill="#15e599" d="M 137.371094 104.425781 C 137.371094 105.523438 137.632812 106.921875 139.128906 106.921875 C 139.742188 106.921875 140.191406 106.683594 140.578125 106.25 L 141.207031 106.707031 C 140.617188 107.371094 140.011719 107.625 139.097656 107.625 C 137.355469 107.625 136.453125 106.117188 136.453125 104.664062 C 136.453125 103.933594 136.535156 103.109375 137.042969 102.371094 C 137.582031 101.601562 138.320312 101.339844 139.0625 101.339844 C 141.09375 101.339844 141.339844 102.96875 141.40625 104.425781 Z M 140.480469 103.820312 C 140.480469 103.589844 140.496094 103.050781 140.203125 102.609375 C 139.929688 102.191406 139.433594 102.027344 139.023438 102.027344 C 138.246094 102.027344 137.527344 102.519531 137.410156 103.8125 L 140.480469 103.8125 Z M 140.480469 103.820312 " fill-opacity="1" fill-rule="nonzero"></path>
  <path fill="#15e599" d="M 147.015625 101.832031 L 147.910156 101.398438 L 147.910156 103.597656 C 147.910156 103.664062 147.933594 103.671875 147.949219 103.671875 C 148.277344 103.671875 148.800781 102.019531 150.707031 101.40625 L 150.707031 102.8125 C 149.382812 102.8125 148.679688 103.417969 147.933594 104.375 L 147.933594 107.542969 L 147.015625 107.542969 Z M 147.015625 101.832031 " fill-opacity="1" fill-rule="nonzero"></path>
  <path fill="#15e599" d="M 159.960938 101.496094 L 160.773438 101.496094 L 160.773438 106.5625 C 160.773438 107.984375 160.535156 109.417969 158.007812 109.417969 C 157.292969 109.417969 156.8125 109.316406 156.46875 109.179688 L 156.46875 108.34375 L 156.976562 108.34375 C 157.292969 108.597656 157.554688 108.777344 158.234375 108.777344 C 159.472656 108.777344 159.855469 108.035156 159.855469 107.117188 L 159.855469 106.085938 C 159.855469 106.0625 159.839844 105.988281 159.789062 105.988281 C 159.773438 105.988281 159.757812 105.988281 159.75 106.003906 C 159.503906 106.683594 158.695312 107.027344 157.964844 107.027344 C 156.445312 107.027344 155.660156 105.511719 155.660156 104.292969 C 155.660156 102.265625 156.796875 101.421875 157.972656 101.421875 C 159.152344 101.421875 159.660156 102.214844 159.796875 102.542969 C 159.824219 102.609375 159.839844 102.617188 159.90625 102.632812 C 159.9375 102.609375 159.960938 102.59375 159.960938 102.542969 Z M 159.90625 104.230469 C 159.90625 102.929688 159.175781 102.058594 158.179688 102.058594 C 157.023438 102.058594 156.558594 103.222656 156.558594 104 C 156.558594 104.515625 156.558594 106.316406 158.1875 106.316406 C 159.21875 106.316406 159.90625 105.351562 159.90625 104.230469 " fill-opacity="1" fill-rule="nonzero"></path>
  <path fill="#15e599" d="M 166.902344 99.066406 L 168.105469 99.066406 L 168.105469 100.324219 L 166.902344 100.324219 Z M 167.941406 107.550781 L 167.089844 107.550781 L 167.089844 101.519531 L 167.941406 101.519531 Z M 167.941406 107.550781 " fill-opacity="1" fill-rule="nonzero"></path>
  <path fill="#15e599" d="M 178.003906 103.082031 C 178.003906 102.691406 178.003906 102.058594 176.746094 102.058594 C 176 102.058594 175.425781 102.339844 174.773438 102.714844 L 174.386719 101.921875 C 175.46875 101.4375 175.992188 101.324219 176.785156 101.324219 C 177.089844 101.324219 177.785156 101.347656 178.28125 101.691406 C 178.929688 102.132812 178.929688 102.65625 178.929688 102.984375 L 178.929688 106.324219 C 178.929688 106.667969 179.070312 106.804688 179.148438 106.863281 C 179.273438 106.953125 179.3125 106.953125 179.699219 106.953125 L 179.699219 107.648438 C 179.183594 107.648438 178.90625 107.648438 178.660156 107.511719 C 178.292969 107.304688 178.128906 106.816406 178.128906 106.601562 C 178.128906 106.511719 178.128906 106.503906 178.109375 106.460938 C 178.09375 106.460938 178.078125 106.453125 178.070312 106.453125 C 178.0625 106.453125 178.046875 106.453125 178.027344 106.460938 C 177.359375 107.15625 176.738281 107.632812 175.679688 107.632812 C 174.886719 107.632812 174.535156 107.394531 174.273438 107.140625 C 173.871094 106.75 173.789062 106.234375 173.789062 106.039062 C 173.789062 104.875 174.765625 104.359375 175.214844 104.179688 C 176.132812 103.8125 177.023438 103.8125 178.011719 103.8125 L 178.011719 103.082031 Z M 177.972656 104.34375 C 177.261719 104.34375 176.546875 104.359375 175.886719 104.605469 C 175.214844 104.859375 174.707031 105.308594 174.707031 105.980469 C 174.707031 106.257812 174.863281 106.976562 175.878906 106.976562 C 176.710938 106.976562 177.703125 106.117188 177.972656 105.832031 Z M 177.972656 104.34375 " fill-opacity="1" fill-rule="nonzero"></path>
</svg>
