<svg xmlns="http://www.w3.org/2000/svg" width="167.518" height="81.409" viewBox="0 0 167.518 81.409">
  <g id="Grupo_359" data-name="Grupo 359" transform="translate(-241.5 -1050.591)">
    <g id="worker" transform="translate(249 1050.591)">
      <g id="Grupo_35" data-name="Grupo 35" transform="translate(89.373 68.666)">
        <g id="Grupo_34" data-name="Grupo 34" transform="translate(0)">
          <path id="Caminho_50" data-name="Caminho 50" d="M347.436,429a1.436,1.436,0,1,0,1.436,1.436A1.437,1.437,0,0,0,347.436,429Z" transform="translate(-346 -429)" fill="#707070"/>
        </g>
      </g>
      <g id="Grupo_37" data-name="Grupo 37" transform="translate(60.458 68.666)">
        <g id="Grupo_36" data-name="Grupo 36">
          <path id="Caminho_51" data-name="Caminho 51" d="M147.436,429a1.436,1.436,0,1,0,1.436,1.436A1.437,1.437,0,0,0,147.436,429Z" transform="translate(-146 -429)" fill="#707070"/>
        </g>
      </g>
      <g id="Grupo_39" data-name="Grupo 39" transform="translate(46)">
        <g id="Grupo_38" data-name="Grupo 38" transform="translate(0)">
          <path id="Caminho_52" data-name="Caminho 52" d="M104.05,59.977a16.98,16.98,0,0,0-6.482-6.393,1.384,1.384,0,0,0-.821-.415A13.943,13.943,0,0,0,90.8,51.835H86.469V47.64a18.548,18.548,0,0,0,5.188-9h.593c3.188,0,5.781-2.853,5.781-6.36A6.7,6.7,0,0,0,96.5,27.967c.091-.085.18-.173.265-.267a4.989,4.989,0,0,0,1.27-3.373,4.763,4.763,0,0,0-2.94-4.515c-.511-7.312-5.175-13.56-11.6-15.518C83.113,2.108,81.473,0,79.242,0H73.461C71.23,0,69.59,2.108,69.209,4.294,62.788,6.252,58.124,12.5,57.612,19.81a4.282,4.282,0,0,0-1.67,1.145,5.093,5.093,0,0,0,.266,7.011,6.7,6.7,0,0,0-1.536,4.312c0,3.507,2.593,6.36,5.781,6.36h.589a18.807,18.807,0,0,0,4.046,7.812c.363.416.748.813,1.146,1.189v4.2H61.9a13.945,13.945,0,0,0-5.943,1.333,1.385,1.385,0,0,0-.821.415,16.98,16.98,0,0,0-6.482,6.393A19.41,19.41,0,0,0,46,69.8V79.819a1.523,1.523,0,0,0,1.445,1.59h57.813a1.523,1.523,0,0,0,1.445-1.59V69.8A19.409,19.409,0,0,0,104.05,59.977ZM54.672,78.229H48.891V69.8a15.692,15.692,0,0,1,5.781-12.224ZM92.25,35.458h-.066q.065-.793.066-1.59V29.1a3.195,3.195,0,0,1,0,6.36ZM69.125,7.654v7.133a1.452,1.452,0,1,0,2.891,0V5.247c0-.985.756-2.067,1.445-2.067h5.781c.689,0,1.445,1.082,1.445,2.067v9.54a1.452,1.452,0,1,0,2.891,0V7.654a14.183,14.183,0,0,1,8.591,11.9H60.534A14.183,14.183,0,0,1,69.125,7.654Zm-8.672,27.8a3.195,3.195,0,0,1,0-6.36v4.77c0,.53.023,1.061.066,1.59Zm0-9.54H59.008a1.525,1.525,0,0,1-1.445-1.59,1.662,1.662,0,0,1,.424-1.124,1.373,1.373,0,0,1,1.022-.466H93.7a1.525,1.525,0,0,1,1.445,1.59,1.662,1.662,0,0,1-.424,1.124,1.373,1.373,0,0,1-1.022.466H60.453Zm3.153,10.841c0-.017-.006-.035-.009-.052a16.087,16.087,0,0,1-.254-2.84V29.1H89.359v4.77a16.092,16.092,0,0,1-.254,2.839c0,.017-.006.035-.009.052A15.341,15.341,0,0,1,84.06,45.7a11.536,11.536,0,0,1-15.42,0,13.932,13.932,0,0,1-1.466-1.451A15.63,15.63,0,0,1,63.606,36.759Zm11.3,41.471H63.344V74.572a1.452,1.452,0,1,0-2.891,0v3.657H57.563V55.885a11.326,11.326,0,0,1,2.891-.776v9.923a1.452,1.452,0,1,0,2.891,0V55.015H67.06l7.846,9.063Zm-5.781-25.44V49.827a14.011,14.011,0,0,0,14.453,0v2.961l-7.227,8.348Zm26.016,25.44H92.25V74.572a1.452,1.452,0,1,0-2.891,0v3.657H77.8V64.078l7.846-9.063h3.717V65.032a1.452,1.452,0,1,0,2.891,0V55.109a11.328,11.328,0,0,1,2.891.776Zm8.672,0H98.031V57.578A15.692,15.692,0,0,1,103.813,69.8Z" transform="translate(-46)" fill="#707070"/>
        </g>
      </g>
    </g>
    <line id="Linha_10" data-name="Linha 10" x2="167.518" transform="translate(241.5 1130.5)" fill="none" stroke="#707070" stroke-width="3"/>
  </g>
</svg>
